inDegrees=no
num_controls=7
num_derivatives=13
num_iterations=51
num_multipliers=7
num_parameters=0
num_slacks=7
num_states=26
objective=0.435809
objective_accelerations=0.055541
objective_balance=0.006046
objective_effort=0.036006
objective_height=0.337160
objective_ligament=0.001055
solver_duration=672.724677
status=Solve_Succeeded
success=true
DataType=double
version=3
OpenSimVersion=4.5
endheader
time	/jointset/ground_pelvis/pelvis_tilt/value	/jointset/ground_pelvis/pelvis_tx/value	/jointset/ground_pelvis/pelvis_ty/value	/jointset/hip_l/hip_flexion_l/value	/jointset/hip_l/hip_adduction_l/value	/jointset/hip_l/hip_rotation_l/value	/jointset/back/lumbar_extension/value	/jointset/patellofemoral_l/patellar_flexion_l/value	/jointset/knee_l/knee_flexion_l/value	/jointset/knee_l/knee_adduction_l/value	/jointset/knee_l/knee_rotation_l/value	/jointset/ankle_l/ankle_angle_l/value	/jointset/subtalar_l/subtalar_angle_l/value	/jointset/ground_pelvis/pelvis_tilt/speed	/jointset/ground_pelvis/pelvis_tx/speed	/jointset/ground_pelvis/pelvis_ty/speed	/jointset/hip_l/hip_flexion_l/speed	/jointset/hip_l/hip_adduction_l/speed	/jointset/hip_l/hip_rotation_l/speed	/jointset/back/lumbar_extension/speed	/jointset/patellofemoral_l/patellar_flexion_l/speed	/jointset/knee_l/knee_flexion_l/speed	/jointset/knee_l/knee_adduction_l/speed	/jointset/knee_l/knee_rotation_l/speed	/jointset/ankle_l/ankle_angle_l/speed	/jointset/subtalar_l/subtalar_angle_l/speed	/forceset/tau_hip_flexion_l	/forceset/tau_hip_adduction_l	/forceset/tau_hip_rotation_l	/forceset/tau_knee_flexion_l	/forceset/tau_ankle_angle_l	/forceset/tau_subtalar_angle_l	/forceset/tau_lumbar_extension	lambda_cid13_p0	lambda_cid13_p1	lambda_cid13_p2	lambda_cid13_p3	lambda_cid13_p4	lambda_cid13_p5	lambda_cid14_p0	/jointset/ground_pelvis/pelvis_tilt/accel	/jointset/ground_pelvis/pelvis_tx/accel	/jointset/ground_pelvis/pelvis_ty/accel	/jointset/hip_l/hip_flexion_l/accel	/jointset/hip_l/hip_adduction_l/accel	/jointset/hip_l/hip_rotation_l/accel	/jointset/back/lumbar_extension/accel	/jointset/patellofemoral_l/patellar_flexion_l/accel	/jointset/knee_l/knee_flexion_l/accel	/jointset/knee_l/knee_adduction_l/accel	/jointset/knee_l/knee_rotation_l/accel	/jointset/ankle_l/ankle_angle_l/accel	/jointset/subtalar_l/subtalar_angle_l/accel	gamma_cid13_p0	gamma_cid13_p1	gamma_cid13_p2	gamma_cid13_p3	gamma_cid13_p4	gamma_cid13_p5	gamma_cid14_p0
1	-0.4183761064778264	-0.03588855190832518	0.5677339665681161	1.805058509123883	-0.2609150825542457	0.2613557497659437	-0.4363250780561665	1.537769281604563	1.537769281604511	-0.1684881641974563	0.1745224986150038	0.3758575096243766	0.08443002737034909	-0.01986093578869799	-0.001617663737385418	-0.00379536956996286	0.02693205195284296	-0.0004060584284711003	0.009166800092888989	-0.0003781621558975371	0.002226940988457187	0.002226940988457758	-0.009303238253975074	0.0005826551610124773	-0.005106997686359242	-0.002509699197327112	-0.321049261030836	0.02893949354901481	-0.005693830342471125	-0.4086760652389465	0.03056034862950719	-0.003371567006220216	0.292470001312698	-38.24746889766393	13.06985353809692	-8.093058370228029	18.44666108304543	-741.2769310615248	-41.28014777867526	-0.03780689124141341	0.9355621331544329	-0.07546305116062274	2.039407013591357	-6.098947082381194	-0.707893866381208	-2.326805574933976	0.001019022920053682	-6.132740832539003	-6.132740832538994	-0.1048389038474053	0.00574725815329679	-1.275126628107618	-1.405511502645141	5.173584379626156e-10	-9.379013562712814e-09	8.362080612850259e-10	-8.271782859581594e-10	-5.848516377098942e-10	-2.335060418731156e-08	1.227859946451103e-09
1.01	-0.4185284248527988	-0.03590854315631337	0.5677978673482201	1.805023593720702	-0.2609537441853398	0.2613285690609297	-0.4363282308403928	1.537485169810939	1.53748516981086	-0.1685828140522174	0.1745274736452392	0.3757428589836749	0.0843359515650786	-0.01061485299174978	-0.002382874527521878	0.01657120580499749	-0.03389247350273659	-0.007322969126398184	-0.01460481948689154	-0.0002378520372254035	-0.05905212560761464	-0.05905212560761364	-0.009621371518140407	0.0004098513788007926	-0.01783741061102746	-0.01630233294304919	-0.3211136324829104	0.02898677631025087	-0.005738336705210225	-0.4083890081960615	0.0303757543791129	-0.003327124337436691	0.2924940555518409	-38.2953306105843	13.0489926895303	-8.078378967962939	18.49724532492639	-741.1436013501553	-41.26780037156361	-0.03782263997652164	0.9173153387901011	-0.07739180949686995	2.034632007867097	-6.070805712302247	-0.6831062095026161	-2.402630283513251	0.02271840902943228	-6.125911266783437	-6.125911266783484	0.005497674642713123	-0.02918463407315317	-1.274139064842693	-1.365677094259252	5.364044764721369e-10	-8.537192213043635e-09	6.917925926630505e-08	7.831307516110995e-09	-1.398310060405606e-08	4.01288348387968e-08	-1.083117910200708e-08
1.02	-0.4185886456026364	-0.03593625485551517	0.5680653037237581	1.804381112975943	-0.2610614782310162	0.2610636141333554	-0.4363295442431356	1.536588183012625	1.536588183012515	-0.1686804855971034	0.1745306425502244	0.3755004761256825	0.08410404186560529	-0.001441410761769162	-0.003161753980111904	0.03691174951667724	-0.09458101636456881	-0.01422054134452218	-0.03838804442721638	-1.028581101095957e-05	-0.120348059949374	-0.1203480599493726	-0.009907576288545447	0.0002214300900144093	-0.03065344114355242	-0.03007647803772766	-0.3211780039349206	0.02903405907156398	-0.005782843067976128	-0.4081019511531677	0.0301911601287356	-0.00328268166852974	0.2925181097910548	-38.34962539931511	13.02928368687055	-8.063912597460233	18.59718294514342	-741.1137816183693	-41.19501111893257	-0.03783326921082225	0.9210340197610263	-0.0781967836514153	2.034200680935229	-6.07175056363171	-0.7040261704205218	-2.329126647042781	0.0184702444289655	-6.136114381676538	-6.136114381676534	-0.09845320509532475	0.002623756838216623	-1.292250149679116	-1.401813772436367	6.617858349492589e-10	-2.494268858958853e-09	1.365260212945407e-07	1.768442732143175e-08	-2.699343314217572e-08	1.10104889073241e-07	-2.262113400586458e-08
1.03	-0.4185571877009832	-0.03597171305741165	0.5685359710641251	1.803132199354995	-0.2612379687761524	0.2605609536487806	-0.4363281816419771	1.535078363988696	1.535078363988608	-0.1687808334468618	0.1745317635856798	0.3751296450795994	0.08373475954110744	0.00775146427207663	-0.003921162695254029	0.05721303312582623	-0.1552018566795459	-0.02106246532668327	-0.06212961939420382	0.0002939180614363028	-0.1815977552192332	-0.1815977552192303	-0.01015256908861593	-7.232106407960522e-06	-0.04351317994878549	-0.04374999732382651	-0.3211825451169097	0.02905304144231557	-0.005901642694376553	-0.4075443400962128	0.0302104091487136	-0.003145809517462475	0.2925582631828811	-38.30829400445993	12.93337273095141	-8.015233290175482	18.48158698258628	-740.845239935104	-41.18695945753061	-0.03786256496906661	0.9211881902981588	-0.0734987902933935	2.026781307425916	-6.057271173470416	-0.6720416055205453	-2.394533105448797	0.03806226228140168	-6.116691703929868	-6.116691703929741	0.01387386974298291	-0.03716089705829284	-1.282892133877131	-1.345648095360051	7.88252247711765e-10	3.60172696455877e-09	2.038626171066866e-07	2.754973726964284e-08	-3.999980734939511e-08	1.801472352996071e-07	-3.440834315314452e-08
1.04	-0.418433246259973	-0.03601450252142997	0.5692093890618886	1.801277073249299	-0.2614824317797942	0.259821305377797	-0.4363234436416086	1.53295658909121	1.532956589091142	-0.1688833519871245	0.1745302880614609	0.3746302053678719	0.08322963660601503	0.01705529711002472	-0.004628006404484293	0.0774618809957948	-0.2158235133161251	-0.02781503304514437	-0.08578560171809237	0.0006647940790207704	-0.2427392346606633	-0.242739234660659	-0.01034171440044237	-0.0002978818698464553	-0.05637517427129358	-0.05724460015647848	-0.3211870862988317	0.02907202381315735	-0.006020442320819135	-0.4069867290392481	0.03022965816871177	-0.003008937366250697	0.2925984165747808	-38.27358381670075	12.83873494699291	-7.966887312329725	18.41566675882248	-740.6810156915603	-41.11909905290377	-0.03788662730577493	0.9432255805816107	-0.06768378246910642	2.023713533099132	-6.071913827952084	-0.6861549176805457	-2.312008118423024	0.03180467345541905	-6.114471215990709	-6.11447121599072	-0.08728370744652435	-0.009773756564948903	-1.292701253134258	-1.366030481747073	2.343768974804665e-10	9.480986536897566e-10	2.67611793487639e-07	3.452403910270911e-08	-5.226079411447654e-08	2.372229796124164e-07	-4.617214933807586e-08
1.05	-0.4182160117149585	-0.03606403004828244	0.5700848953566547	1.798816259451974	-0.2617939403272667	0.2588455815660213	-0.4363139148658178	1.530224155022737	1.530224155022696	-0.1689874538826329	0.1745257279496648	0.3740021025497245	0.08259054012270889	0.0263797868000765	-0.005262019435530408	0.09761695176050936	-0.2762862805407783	-0.03446893060164207	-0.1093455499241016	0.001327443547856995	-0.3037084485920364	-0.3037084485920382	-0.01046112405543736	-0.0006096190397045717	-0.06924888029880724	-0.07053785606156157	-0.3212037319312729	0.02911134810570955	-0.00621501778537062	-0.4060214304678698	0.03024504944329317	-0.002788957959331655	0.292729845479252	-38.21032277543768	12.68540192908543	-7.889076858864286	18.21450686939169	-740.2410587069663	-41.07031443931492	-0.03793324237145899	0.9252911543289971	-0.05892978283310301	2.008026895233029	-6.025510737138187	-0.6523959100789136	-2.375989213038557	0.09646744902397064	-6.082265209459219	-6.082265209460203	0.02833157513517654	-0.04127386024495826	-1.285220710511105	-1.305487188307275	-3.407591328443845e-10	-1.978955411378789e-09	3.312488630113665e-07	4.140799693217711e-08	-6.449848752199117e-08	2.938935176154271e-07	-5.793522418043381e-08
1.06	-0.4179058861748286	-0.03611943164932838	0.5711612769684838	1.795752407468909	-0.262171465597398	0.2576346580639631	-0.4362951651222141	1.526883205069401	1.526883205069401	-0.1690922296406999	0.1745181704336671	0.3732451595847058	0.08181960827166748	0.03563349613464228	-0.005802821243176322	0.1176369444082295	-0.3364311504620907	-0.04101837757595583	-0.132825539784076	0.002508987633738288	-0.3644424116333535	-0.3644424116333613	-0.01047648692397696	-0.0008973627314940294	-0.08214320364437351	-0.08361167370339485	-0.3212203775637377	0.02915067239834926	-0.00640959324999445	-0.4050561318964778	0.03026044071791026	-0.002568978552266926	0.292861274383701	-38.15397166296911	12.53351816413203	-7.811771221884371	18.06255537942928	-739.9067154659126	-40.96329721559919	-0.0379743676622532	0.9290695094845473	-0.04904153778910929	1.996697909700237	-6.008334367283925	-0.6652648012438702	-2.296016449216164	0.1355835968629078	-6.067421037979471	-6.067421037979471	-0.06647435015548467	-0.004975060950961711	-1.296824716744898	-1.322142829097316	-8.941804802652273e-10	-1.931342941618213e-09	3.949213756247052e-07	4.932588581389157e-08	-7.662320775189454e-08	3.481244188731169e-07	-6.896831329476736e-08
